<svg width="20" height="12" viewBox="0 0 20 12" fill="none" xmlns="http://www.w3.org/2000/svg">
<path fill-rule="evenodd" clip-rule="evenodd" d="M18.24 0.666687H17.136C16.5263 0.666687 16.032 1.1144 16.032 1.66669V10.3334C16.032 10.8856 16.5263 11.3334 17.136 11.3334H18.24C18.8497 11.3334 19.344 10.8856 19.344 10.3334V1.66669C19.344 1.1144 18.8497 0.666687 18.24 0.666687ZM11.984 3.00002H13.088C13.6977 3.00002 14.192 3.44774 14.192 4.00002V10.3334C14.192 10.8856 13.6977 11.3334 13.088 11.3334H11.984C11.3743 11.3334 10.88 10.8856 10.88 10.3334V4.00002C10.88 3.44774 11.3743 3.00002 11.984 3.00002ZM7.936 5.33335H6.832C6.22228 5.33335 5.728 5.78107 5.728 6.33335V10.3334C5.728 10.8856 6.22228 11.3334 6.832 11.3334H7.936C8.54573 11.3334 9.04001 10.8856 9.04001 10.3334V6.33335C9.04001 5.78107 8.54573 5.33335 7.936 5.33335ZM2.784 7.33335H1.67999C1.07027 7.33335 0.575989 7.78107 0.575989 8.33335V10.3334C0.575989 10.8856 1.07027 11.3334 1.67999 11.3334H2.784C3.39372 11.3334 3.888 10.8856 3.888 10.3334V8.33335C3.888 7.78107 3.39372 7.33335 2.784 7.33335Z" fill="white"/>
</svg>
