<svg width="25" height="25" viewBox="0 0 25 25" fill="none" xmlns="http://www.w3.org/2000/svg">
<path d="M12.5195 24.9609C19.3281 24.9609 24.9297 19.3594 24.9297 12.5508C24.9297 5.73047 19.3281 0.128906 12.5078 0.128906C5.6875 0.128906 0.0976562 5.73047 0.0976562 12.5508C0.0976562 19.3594 5.69922 24.9609 12.5195 24.9609ZM14.0078 8.89453L18.5195 13.7344C19.0117 14.25 19.0117 15.0586 18.5547 15.5039C18.0273 16.0312 17.2188 16.0312 16.7383 15.5039L12.5195 11.0039L8.28906 15.5039C7.80859 16.0312 7.01172 16.0312 6.47266 15.5039C6.01562 15.0586 6.01562 14.2617 6.50781 13.7344L11.0312 8.90625C11.875 8.00391 13.1523 7.99219 14.0078 8.89453Z" fill="white"/>
</svg>
