<svg width="19" height="19" viewBox="0 0 19 19" fill="none" xmlns="http://www.w3.org/2000/svg">
<path d="M11.4458 18.5859C12.2261 18.5859 12.749 18.0547 13.0562 17.2495L18.6841 2.50732C18.8086 2.18359 18.8667 1.89307 18.8667 1.62744C18.8667 0.855469 18.3687 0.357422 17.5967 0.357422C17.3228 0.357422 17.0322 0.415527 16.7168 0.540039L1.95801 6.17627C1.17773 6.4751 0.638184 6.99805 0.638184 7.77832C0.638184 8.6665 1.26074 9.09814 2.14062 9.37207L5.80957 10.5176C6.55664 10.75 7.04639 10.75 7.62744 10.2354L17.3394 1.46143C17.4888 1.32861 17.6714 1.34521 17.771 1.45312C17.8789 1.56104 17.8955 1.74365 17.7627 1.88477L8.99707 11.5718C8.52393 12.0947 8.47412 12.709 8.68994 13.3979L9.84375 17.0586C10.1177 17.9468 10.5576 18.5859 11.4458 18.5859Z" fill="white"/>
</svg>
